<svg aria-hidden="true" style="position: absolute; width: 0; height: 0; overflow: hidden;" version="1.1" xmlns="http://www.w3.org/2000/svg" xmlns:xlink="http://www.w3.org/1999/xlink">
<defs>
<symbol id="icon-circle_xmark" viewBox="0 0 64 64">
<path d="M31.618 63.905c24.597 0 39.97-26.627 27.671-47.929-5.707-9.886-16.256-15.976-27.671-15.976-24.597 0-39.97 26.627-27.672 47.928 5.708 9.887 16.256 15.977 27.672 15.977zM21.508 21.842c1.173-1.173 3.070-1.173 4.231 0l5.866 5.867 5.867-5.867c1.173-1.173 3.070-1.173 4.231 0s1.173 3.071 0 4.232l-5.866 5.866 5.866 5.866c1.173 1.173 1.173 3.070 0 4.231s-3.071 1.173-4.231 0l-5.867-5.866-5.866 5.866c-1.173 1.173-3.070 1.173-4.231 0s-1.173-3.070 0-4.231l5.866-5.866-5.866-5.866c-1.173-1.174-1.173-3.071 0-4.232z"></path>
</symbol>
<symbol id="icon-arrow_left" viewBox="0 0 64 64">
<path d="M1.339 28.781c-1.785 1.786-1.785 4.686 0 6.472l22.859 22.858c1.786 1.786 4.686 1.786 6.472 0 1.785-1.786 1.785-4.686 0-6.472l-15.073-15.057h43.831c2.529 0 4.572-2.043 4.572-4.572s-2.043-4.572-4.572-4.572h-43.816l15.043-15.058c1.786-1.786 1.786-4.686 0-6.472-1.786-1.785-4.686-1.785-6.472 0l-22.858 22.859 0.014 0.014z"></path>
</symbol>
<symbol id="icon-magnifying_glass" viewBox="0 0 64 64">
<path d="M52.003 26.001c0 5.738-1.863 11.038-5.001 15.339l15.826 15.838c1.563 1.563 1.563 4.1 0 5.663-1.562 1.562-4.1 1.562-5.663 0l-15.825-15.839c-4.301 3.15-9.601 5.001-15.339 5.001-14.363 0-26.001-11.638-26.001-26.002 0-14.363 11.638-26.001 26.001-26.001 14.364 0 26.002 11.638 26.002 26.001zM26.001 44.002c13.858 0 22.518-15.001 15.59-27.001-3.216-5.57-9.159-9.001-15.59-9.001-13.857 0-22.517 15.001-15.589 27.002 3.216 5.569 9.158 9 15.589 9z"></path>
</symbol>
<symbol id="icon-magnifying_glass_solid" viewBox="0 0 64 64">
<path d="M52.003 26.001c0 5.738-1.863 11.038-5.001 15.339l15.826 15.838c1.563 1.563 1.563 4.1 0 5.663-1.562 1.562-4.1 1.562-5.663 0l-15.825-15.839c-4.301 3.15-9.601 5.001-15.339 5.001-14.363 0-26.001-11.638-26.001-26.002 0-14.363 11.638-26.001 26.001-26.001 14.364 0 26.002 11.638 26.002 26.001zM26.001 44.002c13.858 0 22.518-15.001 15.59-27.001-3.216-5.57-9.159-9.001-15.59-9.001-13.857 0-22.517 15.001-15.589 27.002 3.216 5.569 9.158 9 15.589 9z"></path>
<path d="M40.111 26.264c0 7.792-6.316 14.108-14.108 14.108s-14.108-6.316-14.108-14.108c0-7.792 6.316-14.108 14.108-14.108s14.108 6.316 14.108 14.108z"></path>
</symbol>
<symbol id="icon-globe" viewBox="0 0 64 64">
<path d="M27.774 61.95c-7.039-1.214-12.627-4.094-17.273-8.904-4.601-4.765-7.341-10.616-8.2-17.517-0.402-3.23-0.402-3.624 0.004-6.882 0.884-7.106 3.69-12.962 8.548-17.838 9.26-9.293 23.405-11.473 34.983-5.392 2.842 1.492 4.776 2.901 7.098 5.171 4.973 4.86 7.941 11.034 8.828 18.357 0.406 3.347 0.31 5.434-0.422 9.206-1.884 9.7-8.875 18.143-18.125 21.889-3.794 1.536-5.363 1.83-10.3 1.928-2.483 0.050-4.796 0.040-5.141-0.019zM33.692 56.089c2.607-1.9 4.171-4.664 6.214-10.975 0.218-0.676 0.336-1.328 0.262-1.45-0.075-0.12-3.797-0.22-8.271-0.22-6.734 0-8.135 0.060-8.135 0.346 0 0.78 2.034 6.342 2.895 7.917 1.25 2.286 2.16 3.394 3.547 4.318 1.447 0.963 2.235 0.977 3.488 0.064zM21.755 53.953c-0.012-0.218-0.095-0.414-0.226-0.568l0.001 0.001c-0.626-0.666-3.275-8.332-3.282-9.501-0.003-0.401-0.357-0.441-3.89-0.441-2.956 0-3.887 0.076-3.887 0.317 0 0.504 1.934 3.344 3.302 4.848 1.527 1.68 3.916 3.614 5.885 4.767 1.61 0.942 2.097 1.076 2.097 0.577zM43.645 53.742c1.973-1.008 3.973-2.525 5.883-4.461 1.77-1.794 4.075-4.942 4.075-5.566 0-0.182-1.276-0.271-3.867-0.271h-3.866l-0.388 1.701c-0.498 2.181-1.65 5.592-2.5 7.396-0.945 2.010-0.94 2.020 0.663 1.2zM17.15 32.102l0.006-5.796h-8.903l-0.327 0.945c-0.435 1.259-0.441 8.115-0.010 9.577l0.317 1.071h8.911l0.006-5.796zM41.45 34.969c0.168-2.708-0.016-8.017-0.294-8.469-0.066-0.107-4.18-0.194-9.14-0.194-8.356 0-9.035 0.032-9.202 0.441-0.235 0.575-0.235 10.136 0 10.711 0.167 0.409 0.851 0.441 9.317 0.441h9.136zM55.943 37.546c0.074-0.194 0.27-1.286 0.436-2.426 0.322-2.214 0.211-5.335-0.266-7.49l-0.293-1.324h-8.986v11.593h4.487c3.617 0 4.513-0.068 4.622-0.353zM18.365 19.816c0.274-1.475 1.585-5.444 2.538-7.68 0.476-1.118 0.805-2.093 0.731-2.167-0.155-0.155-1.671 0.649-3.594 1.906-2.657 1.737-6.122 5.505-7.418 8.067l-0.414 0.82h7.981zM40.31 20.572c-0.007-0.327-1.17-3.896-1.852-5.677-1.363-3.564-4.203-7.035-6.040-7.381-1.854-0.35-4.312 1.964-6.144 5.784-0.928 1.935-2.511 6.435-2.511 7.138 0 0.26 1.683 0.325 8.275 0.325 4.552 0 8.274-0.085 8.272-0.189zM53.604 20.444c0-0.63-2.378-3.879-4.117-5.624-2.259-2.267-6.645-5.253-7.078-4.818-0.091 0.092 0.18 0.935 0.604 1.872 0.79 1.75 2.074 5.564 2.588 7.69l0.289 1.197h3.857c2.936 0 3.857-0.076 3.857-0.317z"></path>
</symbol>
<symbol id="icon-globe_solid" viewBox="0 0 64 64">
<path d="M43.25 32c0 2.602-0.14 5.11-0.387 7.5h-21.726c-0.247-2.207-0.387-4.765-0.387-7.356 0-0.050 0-0.101 0-0.151v0.008c0-2.602 0.14-5.11 0.387-7.5h21.726c0.258 2.39 0.387 4.898 0.387 7.5zM46.625 24.5h14.426c0.62 2.402 0.949 4.91 0.949 7.5s-0.328 5.098-0.95 7.5h-14.424c0.238-2.229 0.374-4.815 0.374-7.433 0-0.024 0-0.047-0-0.071v0.004c0-0.017 0-0.037 0-0.057 0-2.621-0.136-5.211-0.402-7.761l0.027 0.319zM59.82 20.75h-13.675c-1.172-7.488-3.493-13.758-6.48-17.766 9.221 2.506 16.546 9.050 20.070 17.567l0.073 0.199zM42.348 20.75h-20.696c0.715-4.266 1.817-8.040 3.164-11.098 1.23-2.765 2.602-4.77 3.926-6.035 1.313-1.242 2.403-1.617 3.258-1.617s1.945 0.375 3.258 1.617c1.324 1.266 2.695 3.27 3.926 6.035 1.359 3.047 2.46 6.82 3.164 11.098zM17.855 20.75h-13.675c3.515-8.684 10.968-15.34 20.156-17.766-2.988 4.008-5.309 10.278-6.48 17.766zM2.95 24.5h14.426c-0.239 2.235-0.376 4.828-0.376 7.452 0 0.017 0 0.033 0 0.050v-0.003c0 2.578 0.129 5.086 0.375 7.5h-14.426c-0.603-2.243-0.949-4.817-0.949-7.473 0-0.010 0-0.019 0-0.029v0.002c0-2.59 0.328-5.098 0.95-7.5zM24.817 54.336c-1.359-3.047-2.449-6.82-3.164-11.086h20.696c-0.715 4.266-1.817 8.040-3.164 11.086-1.23 2.766-2.602 4.77-3.926 6.035-1.314 1.254-2.404 1.629-3.259 1.629s-1.945-0.375-3.258-1.617c-1.324-1.266-2.695-3.27-3.926-6.035zM17.857 43.25c1.171 7.488 3.492 13.758 6.48 17.766-9.189-2.426-16.641-9.082-20.157-17.766zM59.821 43.25c-3.515 8.684-10.968 15.34-20.144 17.766 2.988-4.008 5.297-10.278 6.48-17.766z"></path>
</symbol>
<symbol id="icon-house" viewBox="0 0 64 64">
<path d="M14.194 61.71c-2.33-0.95-4.052-2.774-4.949-5.24-0.472-1.298-0.487-1.679-0.551-13.355-0.045-8.144-0.141-12.020-0.3-12.020-0.128 0-0.751 0.495-1.385 1.1-1.4 1.334-1.946 1.67-2.72 1.67-1.478 0-2.537-1.616-2.238-3.414 0.125-0.755 0.947-1.628 6.557-6.968 3.527-3.358 9.853-9.39 14.057-13.405s7.983-7.503 8.398-7.751c0.509-0.305 0.956-0.395 1.374-0.277 0.663 0.188 0.847 0.357 12.023 11.058 0.868 0.859 5.901 5.675 10.937 10.487l4.516 4.285c2.112 2.020 2.464 2.918 1.752 4.472-0.902 1.967-2.183 2.004-4.394 0.128-0.898-0.761-1.704-1.384-1.79-1.384-0.088 0-0.189 5.408-0.225 12.019l-0.066 12.020-0.703 1.673c-0.83 1.974-2.065 3.452-3.698 4.421l-1.18 0.701-17.3 0.056c-13.874 0.045-17.46-0.010-18.115-0.277zM22.041 46.954c0.12-10.334 0.135-10.475 1.27-11.633 1.093-1.116 1.732-1.205 8.698-1.205 6.303 0 6.682 0.027 7.611 0.534 0.59 0.322 1.217 0.94 1.578 1.554l0.599 1.020 0.111 9.71 0.112 9.71 2.902 0.067c3.306 0.075 4.079-0.186 4.962-1.677l0.507-0.855-0.008-14.122-0.008-14.121-3.829-3.65c-2.336-2.225-4.175-3.99-6.008-5.76l0.362 0.348c-5.634-5.462-8.662-8.314-8.89-8.372-0.142-0.036-1.213 0.854-2.379 1.978-0.398 0.388-1.486 1.435-2.575 2.481l-0.765 0.731c-0.67 0.643-1.683 1.622-2.251 2.175s-3.158 3.046-5.756 5.538l-4.724 4.53v28.531l0.602 0.808c0.971 1.302 1.616 1.49 4.866 1.427l2.902-0.057zM36.945 48.149l0.058-8.495h-10.051v17.126l9.934-0.136z"></path>
</symbol>
<symbol id="icon-house_solid" viewBox="0 0 64 64">
<path d="M40 34h7v24h-7zM18 33h7v25h-7zM44.161 58.32l-1.921-0.028-0.060-3.894c-0.034-2.142-0.088-6.707-0.12-10.146l-0.060-6.252-0.464-0.774c-0.831-1.39-1.814-2.14-3.072-2.35-0.922-0.154-7.908-0.223-10.904-0.108-3.464 0.133-3.94 0.242-4.875 1.116-0.6 0.56-0.884 1.062-1.052 1.849-0.19 0.897-0.306 3.79-0.367 9.225-0.029 2.566-0.078 6.17-0.11 8.008l-0.056 3.344-6.094-0.060-0.634-0.312c-0.541-0.267-0.728-0.431-1.278-1.12l-0.644-0.808 0.020-29.766 1.223-1.17c0.673-0.642 4.479-4.296 8.456-8.118 3.978-3.823 7.484-7.185 7.792-7.472 0.774-0.721 1.618-1.39 1.753-1.39 0.187 0 2.377 2.044 7.951 7.42 2.709 2.612 8.115 7.785 10.092 9.656l1.133 1.074 0.010 14.718 0.010 14.72-0.396 0.66c-0.58 0.969-0.851 1.257-1.472 1.567-0.763 0.381-1.65 0.456-4.86 0.411zM14.194 61.71c-2.33-0.95-4.052-2.774-4.949-5.24-0.472-1.298-0.487-1.679-0.551-13.355-0.045-8.144-0.141-12.020-0.3-12.020-0.128 0-0.751 0.495-1.385 1.1-1.4 1.334-1.946 1.67-2.72 1.67-1.478 0-2.537-1.616-2.238-3.414 0.125-0.755 0.947-1.628 6.557-6.968 3.527-3.358 9.853-9.39 14.057-13.405s7.983-7.503 8.398-7.751c0.509-0.305 0.956-0.395 1.374-0.277 0.663 0.188 0.847 0.357 12.023 11.058 0.868 0.859 5.901 5.675 10.937 10.487l4.516 4.285c2.112 2.020 2.464 2.918 1.752 4.472-0.902 1.967-2.183 2.004-4.394 0.128-0.898-0.761-1.704-1.384-1.79-1.384-0.088 0-0.189 5.408-0.225 12.019l-0.066 12.020-0.703 1.673c-0.83 1.974-2.065 3.452-3.698 4.421l-1.18 0.701-17.3 0.056c-13.874 0.045-17.46-0.010-18.115-0.277zM22.041 46.954c0.12-10.334 0.135-10.475 1.27-11.633 1.093-1.116 1.732-1.205 8.698-1.205 6.303 0 6.682 0.027 7.611 0.534 0.59 0.322 1.217 0.94 1.578 1.554l0.599 1.020 0.111 9.71 0.112 9.71 2.902 0.067c3.306 0.075 4.079-0.186 4.962-1.677l0.507-0.855-0.008-14.122-0.008-14.121-3.829-3.65c-2.336-2.225-4.175-3.99-6.008-5.76l0.362 0.348c-5.634-5.462-8.662-8.314-8.89-8.372-0.142-0.036-1.213 0.854-2.379 1.978-0.398 0.388-1.486 1.435-2.575 2.481l-0.765 0.731c-0.67 0.643-1.683 1.622-2.251 2.175s-3.158 3.046-5.756 5.538l-4.724 4.53v28.531l0.602 0.808c0.971 1.302 1.616 1.49 4.866 1.427l2.902-0.057zM36.945 48.149l0.058-8.495h-10.051v17.126l9.934-0.136z"></path>
</symbol>
<symbol id="icon-signup" viewBox="0 0 64 64">
<path d="M41.369 61.679c-1.137-0.602-1.686-1.469-1.714-2.706-0.030-1.3 0.605-2.546 1.493-2.933 0.346-0.15 2.796-0.273 5.444-0.273 5.537 0 6.643-0.271 8.156-2.003 1.778-2.035 1.75-1.688 1.75-21.745 0-19.931 0.018-19.704-1.66-21.624-1.648-1.885-1.909-1.954-7.967-2.118-6.050-0.164-6.434-0.267-7.020-1.872-0.746-2.040 0.378-3.934 2.557-4.308 0.64-0.11 3.255-0.13 5.813-0.044 3.803 0.127 4.914 0.262 6.089 0.739 2.956 1.2 5.474 3.798 6.56 6.766 1.045 2.86 1.13 4.568 1.13 22.61 0 18.718-0.054 19.612-1.38 22.816-1.208 2.92-3.897 5.501-6.681 6.415-1.896 0.622-11.518 0.836-12.57 0.28zM22.563 52.63c-1.396-0.973-1.658-1.947-1.812-6.735l-0.138-4.292-7.914-0.143c-8.688-0.157-8.173-0.050-9.583-1.983-0.942-1.29-1.095-2.298-1.114-7.345-0.020-5.024 0.132-6.14 1.039-7.63 1.042-1.71 1.343-1.77 9.82-1.926l7.752-0.143 0.138-4.292c0.154-4.788 0.416-5.762 1.812-6.736 0.97-0.676 2.895-0.742 3.922-0.134 1.358 0.804 18.612 18.4 19.105 19.483 0.84 1.847 0.423 2.614-3.642 6.7-4.88 4.906-8.042 8.103-11.61 11.738-1.666 1.697-3.377 3.29-3.802 3.542-1.073 0.635-2.985 0.585-3.973-0.104zM29.439 41.674c7.888-7.854 9.436-9.422 9.5-9.63 0.040-0.124-0.58-0.857-1.374-1.629-1.306-1.283-2.557-2.532-3.796-3.792l-0.041-0.042c-6.447-6.554-7.061-7.153-7.334-7.153-0.078 0-0.173 2.093-0.21 4.65l-0.070 4.65-18.63 0.149v3.114c0 2.575 0.069 3.143 0.396 3.287 0.217 0.095 4.437 0.173 9.377 0.173h8.983v4.435c0 2.993 0.088 4.435 0.27 4.435 0.15 0 1.467-1.19 2.93-2.647z"></path>
</symbol>
<symbol id="icon-signup_solid" viewBox="0 0 64 64">
<path d="M44.596 2.002c-1.054 0.008-1.868 0.040-2.188 0.096-2.179 0.374-3.302 2.266-2.556 4.306 0.586 1.605 0.97 1.71 7.020 1.873 6.057 0.164 6.318 0.233 7.966 2.118 1.678 1.92 1.66 1.694 1.66 21.625 0 20.057 0.028 19.709-1.75 21.744-1.513 1.732-2.62 2.004-8.156 2.004-2.648 0-5.098 0.121-5.444 0.271-0.888 0.387-1.524 1.634-1.494 2.934 0.028 1.237 0.578 2.105 1.715 2.707 1.052 0.556 10.674 0.34 12.57-0.282 2.784-0.914 5.472-3.494 6.68-6.414 1.326-3.204 1.381-4.098 1.381-22.816 0-18.042-0.086-19.75-1.13-22.61-1.087-2.967-3.603-5.565-6.56-6.765-1.174-0.477-2.286-0.613-6.090-0.74-0.923-0.033-2.008-0.053-3.098-0.053-0.185 0-0.37 0.001-0.555 0.002l0.028-0zM24.502 10.857c-0.73 0.025-1.454 0.21-1.94 0.547-1.396 0.974-1.656 1.949-1.81 6.737l-0.139 4.293-7.752 0.142c-8.477 0.156-8.778 0.216-9.82 1.926-0.907 1.49-1.059 2.607-1.039 7.63 0.019 5.048 0.171 6.055 1.113 7.345 1.41 1.933 0.896 1.827 9.584 1.984l7.914 0.143 0.139 4.29c0.154 4.789 0.415 5.764 1.81 6.737 0.988 0.689 2.9 0.738 3.973 0.103 0.425-0.252 2.137-1.846 3.803-3.543 4.099-4.173 7.883-7.997 11.679-11.808l-0.069 0.070c4.064-4.086 4.482-4.852 3.642-6.7-0.493-1.082-17.748-18.678-19.106-19.482-0.513-0.304-1.251-0.439-1.982-0.414z"></path>
</symbol>
<symbol id="icon-signout" viewBox="0 0 64 64">
<path d="M22.631 61.679c1.137-0.602 1.686-1.469 1.714-2.706 0.030-1.3-0.605-2.546-1.493-2.933-0.346-0.15-2.796-0.273-5.444-0.273-5.537 0-6.643-0.271-8.156-2.003-1.778-2.035-1.75-1.688-1.75-21.745 0-19.931-0.018-19.704 1.66-21.624 1.648-1.885 1.909-1.954 7.967-2.118 6.050-0.164 6.434-0.267 7.020-1.872 0.746-2.040-0.378-3.934-2.557-4.308-0.64-0.11-3.255-0.13-5.813-0.044-3.803 0.127-4.914 0.262-6.089 0.739-2.956 1.2-5.474 3.798-6.56 6.766-1.045 2.86-1.13 4.568-1.13 22.61 0 18.718 0.054 19.612 1.38 22.816 1.208 2.92 3.897 5.501 6.681 6.415 1.896 0.622 11.518 0.836 12.57 0.28zM38.614 52.613c-1.396-0.973-1.658-1.947-1.812-6.735l-0.138-4.292-7.914-0.143c-8.688-0.157-8.173-0.050-9.583-1.983-0.942-1.29-1.095-2.298-1.114-7.345-0.020-5.024 0.132-6.14 1.039-7.63 1.042-1.71 1.343-1.77 9.82-1.926l7.752-0.143 0.138-4.292c0.154-4.788 0.416-5.762 1.812-6.736 0.97-0.676 2.895-0.742 3.922-0.134 1.358 0.804 18.612 18.4 19.105 19.483 0.84 1.847 0.423 2.614-3.642 6.7-4.88 4.906-8.042 8.103-11.61 11.738-1.666 1.697-3.377 3.29-3.802 3.542-1.073 0.635-2.985 0.585-3.973-0.104zM45.49 41.657c7.888-7.854 9.436-9.422 9.5-9.63 0.040-0.124-0.58-0.857-1.374-1.629-1.29-1.266-2.569-2.544-3.837-3.834-6.447-6.554-7.061-7.153-7.334-7.153-0.078 0-0.173 2.093-0.21 4.65l-0.070 4.65-18.63 0.149v3.114c0 2.575 0.069 3.143 0.396 3.287 0.217 0.095 4.437 0.173 9.377 0.173h8.983v4.435c0 2.993 0.088 4.435 0.27 4.435 0.15 0 1.467-1.19 2.93-2.647h-0.001z"></path>
</symbol>
<symbol id="icon-signout_solid" viewBox="0 0 64 64">
<path d="M46.286 11.897l14.39 16.447c0.844 0.964 1.324 2.29 1.324 3.656s-0.48 2.692-1.324 3.656l-14.39 16.447c-0.75 0.857-1.758 1.325-2.813 1.325-2.192 0-3.973-2.035-3.973-4.54v-8.316h-15c-2.074 0-3.75-1.916-3.75-4.287v-8.57c0-2.371 1.676-4.287 3.75-4.287h15v-8.316c0-2.505 1.781-4.54 3.973-4.54 1.055 0 2.063 0.481 2.813 1.325zM20.75 10.572h-7.5c-2.074 0-3.75 1.915-3.75 4.285v34.286c0 2.37 1.676 4.285 3.75 4.285h7.5c2.075 0 3.75 1.916 3.75 4.287 0 2.37-1.675 4.285-3.75 4.285h-7.5c-6.211 0-11.25-5.759-11.25-12.857v-34.286c0-7.098 5.039-12.857 11.25-12.857h7.5c2.075 0 3.75 1.915 3.75 4.285s-1.675 4.287-3.75 4.287z"></path>
</symbol>
</defs>
</svg>
